<?xml version="1.0" standalone="no"?>
<!DOCTYPE svg PUBLIC "-//W3C//DTD SVG 20010904//EN"
 "http://www.w3.org/TR/2001/REC-SVG-20010904/DTD/svg10.dtd">
<svg version="1.0" xmlns="http://www.w3.org/2000/svg"
 width="1280.000000pt" height="1167.000000pt" viewBox="0 0 1280.000000 1167.000000"
 preserveAspectRatio="xMidYMid meet">
<metadata>
Created by potrace 1.15, written by Peter Selinger 2001-2017
</metadata>
<g transform="translate(0.000000,1167.000000) scale(0.100000,-0.100000)"
fill="#000000" stroke="none">
<path d="M3120 11664 c-122 -12 -288 -38 -400 -64 -1120 -255 -2116 -1236
-2530 -2490 -282 -853 -246 -1718 101 -2413 96 -191 226 -390 355 -541 54 -64
718 -774 4666 -4993 l1088 -1163 2767 2958 c1522 1626 2807 3000 2856 3052
436 463 671 965 758 1620 17 127 18 565 1 700 -56 453 -171 855 -357 1246
-478 1007 -1328 1760 -2263 2004 -521 136 -1059 114 -1580 -65 -142 -48 -160
-55 -322 -130 -231 -107 -479 -260 -705 -435 -361 -280 -720 -651 -1048 -1085
-55 -71 -103 -130 -107 -130 -4 0 -54 61 -110 135 -779 1029 -1655 1630 -2585
1771 -126 19 -476 33 -585 23z m667 -353 c382 -72 772 -256 1168 -551 439
-326 930 -837 1355 -1408 45 -62 86 -112 90 -112 5 0 31 37 60 83 71 112 225
328 334 467 814 1045 1744 1576 2711 1547 264 -8 461 -41 700 -117 951 -304
1767 -1148 2127 -2200 236 -691 235 -1400 -3 -1998 -92 -231 -236 -471 -397
-662 -107 -127 -5521 -5925 -5532 -5925 -5 0 -492 522 -1082 1160 -590 638
-1797 1943 -2682 2900 -885 957 -1638 1773 -1672 1813 -226 264 -420 626 -519
968 -256 882 -52 1891 549 2714 551 754 1333 1232 2184 1335 168 20 463 13
609 -14z"/>
</g>
</svg>
